<?xml version="1.0" standalone="no"?>
<!DOCTYPE svg PUBLIC "-//W3C//DTD SVG 20010904//EN"
 "http://www.w3.org/TR/2001/REC-SVG-20010904/DTD/svg10.dtd">
<svg version="1.0" xmlns="http://www.w3.org/2000/svg"
 width="375.000000pt" height="375.000000pt" viewBox="0 0 375.000000 375.000000"
 preserveAspectRatio="xMidYMid meet">
<metadata>
Created by potrace 1.11, written by Peter Selinger 2001-2013
</metadata>
<g transform="translate(0.000000,375.000000) scale(0.100000,-0.100000)"
fill="#000000" stroke="none">
<path d="M1695 3284 c-27 -8 -58 -12 -68 -10 -9 2 -15 1 -12 -4 6 -10 -54 -22
-68 -13 -5 3 -7 2 -4 -4 8 -12 -139 -46 -155 -37 -7 4 -8 2 -4 -4 4 -8 -1 -13
-13 -13 -12 -1 -27 -2 -33 -3 -7 -1 -16 -5 -20 -11 -4 -5 -11 -10 -15 -11 -4
0 -26 -9 -48 -19 -22 -10 -43 -17 -47 -17 -5 1 -8 -2 -8 -6 0 -5 -11 -14 -25
-20 -32 -15 -38 -15 -29 0 5 7 3 8 -5 4 -7 -5 -10 -11 -7 -14 3 -3 -2 -11 -12
-17 -33 -23 -232 -126 -232 -120 0 3 -9 -3 -21 -14 -12 -11 -35 -25 -53 -32
-17 -7 -33 -16 -36 -20 -3 -3 -23 -15 -45 -27 -39 -19 -40 -21 -40 -70 0 -28
-3 -48 -7 -46 -5 3 -5 23 -2 45 7 44 5 45 -37 24 -16 -9 -35 -13 -41 -9 -6 4
-9 3 -5 -2 3 -5 -25 -25 -61 -44 -37 -19 -79 -43 -94 -53 -16 -10 -28 -16 -28
-12 0 3 -9 -3 -21 -14 -20 -18 -21 -28 -19 -223 0 -111 2 -248 4 -303 2 -57
-1 -105 -6 -112 -6 -8 -7 -13 -1 -13 5 0 10 -34 11 -75 1 -57 -2 -74 -11 -68
-8 4 -7 1 1 -10 8 -9 13 -26 12 -39 -1 -13 -2 -61 -1 -108 l1 -85 85 -117 c46
-65 83 -118 80 -118 -2 0 6 -11 18 -24 12 -13 40 -50 62 -82 22 -33 70 -101
107 -153 37 -51 65 -98 61 -104 -3 -5 -1 -7 4 -4 6 4 25 -15 43 -43 18 -28 38
-50 46 -50 7 0 27 20 44 44 47 69 54 64 11 -6 l-39 -63 19 -37 c11 -22 27 -38
37 -38 80 -1 198 -15 204 -24 5 -8 8 -7 8 2 0 6 5 12 10 12 6 0 21 9 33 21 47
44 117 67 117 38 0 -6 -4 -8 -10 -4 -14 8 -93 -32 -108 -55 -11 -17 -7 -25 27
-62 22 -23 37 -46 34 -51 -3 -6 -2 -7 4 -4 12 8 155 -137 146 -148 -8 -8 68
-3 227 15 52 7 104 10 117 7 12 -2 20 0 17 4 -3 5 12 9 34 9 22 0 101 7 177
16 76 9 151 14 166 12 15 -3 26 -1 23 4 -3 4 14 9 38 9 47 2 62 3 128 12 60 9
173 21 295 33 39 3 84 13 100 22 17 9 33 15 38 14 4 -1 6 2 5 7 -2 5 32 35 74
67 103 80 118 89 130 86 5 -1 7 2 4 7 -3 5 1 14 9 21 8 7 15 9 15 5 0 -5 9 2
19 14 12 14 25 20 32 15 7 -4 9 -3 6 3 -6 9 139 131 153 129 3 0 17 11 31 24
37 36 138 111 144 108 2 -2 12 7 21 20 10 15 22 21 32 17 9 -3 13 -3 9 1 -4 4
-2 12 3 19 5 6 11 89 12 183 2 95 5 172 8 172 3 0 5 14 5 30 0 17 -2 30 -5 30
-3 0 -4 35 -2 77 7 220 6 501 -2 496 -5 -3 -7 8 -4 25 2 17 2 30 -1 29 -3 -1
-15 4 -27 10 -22 12 -27 14 -132 34 -38 8 -57 16 -50 21 7 4 -4 5 -24 1 -26
-4 -38 -2 -38 6 0 7 -4 9 -10 6 -8 -5 -110 14 -270 50 -8 2 -21 4 -28 4 -10 1
-12 10 -7 34 4 17 10 37 13 42 4 6 7 15 7 20 0 6 7 34 15 63 10 38 18 51 28
47 12 -4 12 -2 4 8 -7 8 -10 38 -8 73 5 78 4 76 19 68 9 -6 9 -4 1 7 -152 196
-193 253 -187 262 3 5 1 7 -4 4 -6 -4 -18 2 -28 13 -10 11 -28 20 -41 20 -12
0 -56 7 -96 16 -40 8 -91 18 -113 20 -22 3 -42 10 -43 15 -2 5 -8 7 -12 4 -14
-8 -140 17 -134 27 3 4 -2 5 -10 2 -13 -5 -330 50 -366 63 -17 7 -32 9 -73 11
-16 1 -26 5 -24 10 9 13 -107 10 -158 -4z m-412 -166 c-10 -18 -21 -51 -24
-73 l-6 -40 -1 43 c-2 42 37 140 45 115 2 -6 -4 -27 -14 -45z m-166 -815 c-3
-10 -5 -2 -5 17 0 19 2 27 5 18 2 -10 2 -26 0 -35z m2347 -20 c-7 -62 -32
-153 -43 -153 -4 0 0 24 10 53 10 28 18 66 19 84 0 30 8 63 16 63 1 0 1 -21
-2 -47z m-2314 -58 c0 -3 -9 0 -20 7 -11 7 -20 19 -20 27 0 11 6 9 20 -7 11
-12 20 -24 20 -27z m1170 -888 c0 -2 -12 -14 -27 -28 l-28 -24 24 28 c23 25
31 32 31 24z m-110 -121 c0 -2 -8 -10 -17 -17 -16 -13 -17 -12 -4 4 13 16 21
21 21 13z m330 -261 c-7 -8 -17 -15 -23 -15 -6 0 -2 7 9 15 25 19 30 19 14 0z"/>
<path d="M1270 3236 c0 -2 7 -7 16 -10 8 -3 12 -2 9 4 -6 10 -25 14 -25 6z"/>
<path d="M296 2561 c-3 -5 -59 -28 -123 -51 -170 -62 -173 -64 -173 -106 0
-22 4 -33 11 -29 6 4 70 28 142 55 132 47 132 47 135 81 2 19 8 40 14 46 6 7
8 13 5 13 -3 0 -8 -4 -11 -9z"/>
<path d="M200 2414 c-178 -66 -200 -77 -200 -90 0 -18 -1 -18 62 7 96 39 220
79 228 74 5 -3 6 4 3 15 -7 25 -12 24 -93 -6z"/>
<path d="M215 2284 c-194 -65 -215 -75 -215 -99 0 -23 1 -23 142 26 79 28 144
52 146 54 2 2 2 12 0 23 -3 19 -5 18 -73 -4z"/>
<path d="M265 2210 c-11 -4 -75 -27 -142 -51 l-123 -43 0 -42 0 -42 76 28 c41
16 106 38 145 49 l69 22 0 44 c0 25 -1 45 -2 44 -2 0 -12 -4 -23 -9z"/>
<path d="M137 2032 c-104 -35 -137 -51 -137 -64 0 -14 18 -11 131 28 72 24
137 44 145 44 8 0 14 9 14 20 0 11 -3 20 -7 20 -5 -1 -70 -22 -146 -48z"/>
<path d="M310 2036 c0 -2 7 -7 16 -10 8 -3 12 -2 9 4 -6 10 -25 14 -25 6z"/>
<path d="M235 2006 c-22 -6 -84 -26 -137 -44 l-98 -34 0 -38 0 -38 102 33 c57
18 122 38 146 44 40 11 42 13 42 51 0 22 -3 40 -7 39 -5 -1 -26 -6 -48 -13z"/>
<path d="M145 1796 c-108 -33 -141 -46 -143 -61 -3 -14 0 -16 14 -11 11 4 75
24 144 44 69 19 127 37 128 38 2 1 2 9 0 17 -2 12 -28 8 -143 -27z"/>
<path d="M138 1726 c-124 -37 -138 -43 -138 -63 0 -13 1 -23 3 -23 1 0 65 18
142 41 77 22 145 41 152 42 13 0 1 40 -13 43 -5 1 -71 -17 -146 -40z"/>
<path d="M190 1624 c-47 -14 -109 -31 -137 -40 -49 -13 -53 -17 -53 -44 0 -17
1 -30 3 -30 13 1 300 79 304 84 10 9 -7 56 -20 55 -6 -1 -50 -12 -97 -25z"/>
<path d="M200 1534 c-167 -43 -200 -54 -200 -67 0 -9 49 0 168 30 92 23 171
42 175 43 5 0 5 5 2 10 -9 14 -38 11 -145 -16z"/>
<path d="M250 1429 c-227 -53 -250 -60 -250 -80 0 -23 -10 -24 107 5 54 14
148 35 208 47 61 12 112 24 114 25 8 7 -22 34 -38 33 -9 0 -72 -14 -141 -30z"/>
<path d="M3513 1385 c0 -8 4 -12 9 -9 5 3 6 10 3 15 -9 13 -12 11 -12 -6z"/>
<path d="M420 1383 c-51 -9 -346 -73 -382 -83 -35 -10 -38 -14 -38 -46 0 -29
3 -34 18 -30 56 17 276 62 445 91 20 3 37 10 37 14 0 12 -40 61 -48 60 -4 -1
-18 -4 -32 -6z"/>
<path d="M480 1273 c-293 -48 -480 -91 -480 -109 0 -15 2 -15 110 12 31 7 141
27 245 45 105 17 192 32 194 34 1 2 0 8 -4 14 -6 11 -19 12 -65 4z"/>
<path d="M505 1223 c-130 -16 -424 -70 -487 -89 -23 -7 -25 -64 -4 -64 8 0 43
7 78 15 82 19 352 61 445 70 68 7 72 8 71 30 -1 13 -6 21 -10 19 -5 -3 -11 2
-14 10 -6 16 -17 17 -79 9z"/>
<path d="M515 1063 c-50 -5 -347 -49 -439 -66 -38 -7 -71 -18 -74 -25 -5 -16
5 -15 134 8 137 25 320 48 444 56 108 6 124 10 115 24 -6 10 -94 11 -180 3z"/>
<path d="M555 1003 c-92 -6 -299 -33 -427 -55 -109 -18 -128 -24 -128 -40 0
-10 2 -18 5 -18 3 0 60 9 128 19 195 31 320 45 512 56 54 3 101 8 104 10 2 3
-2 11 -9 20 -12 15 -54 17 -185 8z"/>
<path d="M695 903 c-120 -3 -347 -22 -465 -39 -189 -26 -230 -35 -230 -51 0
-12 7 -14 33 -9 79 16 344 46 457 52 69 3 145 7 170 9 25 2 74 4 109 4 62 1
63 2 48 19 -10 10 -23 18 -30 18 -6 -1 -48 -2 -92 -3z"/>
<path d="M1260 716 c0 -2 8 -10 18 -17 15 -13 16 -12 3 4 -13 16 -21 21 -21
13z"/>
</g>
</svg>
